<?xml version="1.0" ?><svg height="48" viewBox="0 0 48 48" width="48" xmlns="http://www.w3.org/2000/svg"><defs><style>.cls-1{fill:#f1f2f2;}.cls-2{fill:#49aaee;}.cls-3{fill:#3398d6;}</style></defs><title/><g data-name="11-Trello" id="_11-Trello"><g data-name="&lt;Group&gt;" id="_Group_"><rect class="cls-1" height="17" rx="2" ry="2" width="12" x="22" y="6"/><rect class="cls-1" height="30" rx="2" ry="2" width="12" x="6" y="6"/><path class="cls-2" d="M47,7V41a6,6,0,0,1-6,6H7a6,6,0,0,1-6-6V7A6,6,0,0,1,7,1H41A6,6,0,0,1,47,7ZM34,21V8a2.006,2.006,0,0,0-2-2H24a2.006,2.006,0,0,0-2,2V21a2.006,2.006,0,0,0,2,2h8A2.006,2.006,0,0,0,34,21ZM18,34V8a2.006,2.006,0,0,0-2-2H8A2.006,2.006,0,0,0,6,8V34a2.006,2.006,0,0,0,2,2h8A2.006,2.006,0,0,0,18,34Z"/><path class="cls-3" d="M16,37H8a3,3,0,0,1-3-3V8A3,3,0,0,1,8,5h8a3,3,0,0,1,3,3V34A3,3,0,0,1,16,37ZM8,7A1,1,0,0,0,7,8V34a1,1,0,0,0,1,1h8a1,1,0,0,0,1-1V8a1,1,0,0,0-1-1Z"/><path class="cls-3" d="M32,24H24a3,3,0,0,1-3-3V8a3,3,0,0,1,3-3h8a3,3,0,0,1,3,3V21A3,3,0,0,1,32,24ZM24,7a1,1,0,0,0-1,1V21a1,1,0,0,0,1,1h8a1,1,0,0,0,1-1V8a1,1,0,0,0-1-1Z"/></g></g></svg>